<svg width="30" height="30" viewBox="0 0 30 30" fill="none" xmlns="http://www.w3.org/2000/svg">
<g clip-path="url(#clip0_5_10)">
<path d="M15 30C18.9782 30 22.7936 28.4196 25.6066 25.6066C28.4196 22.7936 30 18.9782 30 15C30 11.0218 28.4196 7.20644 25.6066 4.3934C22.7936 1.58035 18.9782 0 15 0C11.0218 0 7.20644 1.58035 4.3934 4.3934C1.58035 7.20644 0 11.0218 0 15C0 18.9782 1.58035 22.7936 4.3934 25.6066C7.20644 28.4196 11.0218 30 15 30ZM15.6621 6.83789L22.2246 13.4004C22.4941 13.6699 22.5703 14.0742 22.4297 14.4199C22.2891 14.7656 21.9434 15 21.5625 15H17.8125V20.625C17.8125 21.6621 16.9746 22.5 15.9375 22.5H14.0625C13.0254 22.5 12.1875 21.6621 12.1875 20.625V15H8.4375C8.05664 15 7.7168 14.7715 7.57031 14.4199C7.42383 14.0684 7.50586 13.6641 7.77539 13.4004L14.3379 6.83789C14.7012 6.47461 15.2988 6.47461 15.6621 6.83789Z" fill="white"/>
</g>
<defs>
<clipPath id="clip0_5_10">
<rect width="30" height="30" fill="white"/>
</clipPath>
</defs>
</svg>
