<svg width="28" height="30" viewBox="0 0 28 30" fill="none" xmlns="http://www.w3.org/2000/svg">
<path d="M11.1875 1.875C11.1875 0.837891 12.0253 0 13.0625 0H14.9375C15.9746 0 16.8125 0.837891 16.8125 1.875V10.1309L23.9609 6.00586C24.8574 5.49023 26.0058 5.79492 26.5214 6.69141L27.4589 8.31445C27.9746 9.21094 27.6699 10.3594 26.7734 10.875L19.625 15L26.7734 19.125C27.6699 19.6406 27.9804 20.7891 27.4589 21.6855L26.5214 23.3086C26.0058 24.2051 24.8574 24.5156 23.9609 23.9941L16.8125 19.8691V28.125C16.8125 29.1621 15.9746 30 14.9375 30H13.0625C12.0253 30 11.1875 29.1621 11.1875 28.125V19.8691L4.03902 24C3.14253 24.5156 1.99409 24.2109 1.47847 23.3145L0.540969 21.6914C0.0253438 20.7949 0.330031 19.6465 1.22652 19.1309L8.37495 15L1.22652 10.875C0.330031 10.3594 0.0253438 9.21094 0.540969 8.31445L1.47847 6.69141C1.99409 5.78906 3.14253 5.48438 4.03902 6L11.1875 10.125V1.875Z" fill="#CF0505"/>
</svg>
