<svg width="30" height="27" viewBox="0 0 30 27" fill="none" xmlns="http://www.w3.org/2000/svg">
<g filter="url(#filter0_i_5_30)">
<path d="M14.9949 0C15.474 0 15.9115 0.270833 16.1199 0.703125L19.6928 8.0625L27.6719 9.23958C28.1407 9.30729 28.5313 9.63542 28.6771 10.0885C28.823 10.5417 28.7032 11.0312 28.3699 11.3646L22.5834 17.1042L23.948 25.2083C24.0261 25.6771 23.8334 26.151 23.4428 26.4323C23.0521 26.7135 22.5417 26.7448 22.1251 26.5208L14.9896 22.7083L7.86465 26.5156C7.44277 26.7396 6.93235 26.7083 6.54694 26.4271C6.16152 26.1458 5.9636 25.6719 6.04173 25.2031L7.40631 17.099L1.61985 11.3646C1.28131 11.0312 1.16673 10.5365 1.31256 10.0885C1.4584 9.64062 1.84902 9.3125 2.31777 9.23958L10.2969 8.0625L13.8699 0.703125C14.0834 0.270833 14.5157 0 14.9949 0ZM14.9949 4.11458L12.2605 9.75C12.0782 10.1198 11.7292 10.3802 11.3178 10.4427L5.15631 11.349L9.63027 15.7812C9.91673 16.0677 10.0521 16.474 9.98444 16.875L8.92715 23.1094L14.4063 20.1823C14.7761 19.9844 15.2188 19.9844 15.5834 20.1823L21.0626 23.1094L20.0105 16.8802C19.9428 16.4792 20.073 16.0729 20.3646 15.7865L24.8386 11.3542L18.6771 10.4427C18.2709 10.3802 17.9167 10.125 17.7344 9.75L14.9949 4.11458Z" fill="#FBCB29"/>
</g>
<path d="M28.722 11.7196L28.7234 11.7181C29.1892 11.2524 29.3565 10.5672 29.1531 9.93536C28.9486 9.30006 28.401 8.84001 27.7442 8.74484C27.744 8.7448 27.7437 8.74476 27.7434 8.74472L20.0272 7.60642L16.5703 0.486053C16.5702 0.485806 16.57 0.485559 16.5699 0.485313C16.2769 -0.121962 15.663 -0.5 14.9949 -0.5C14.3232 -0.5 13.7184 -0.119137 13.4216 0.481676L13.4201 0.484754L9.96255 7.60642L2.2448 8.74494L2.2448 8.74492L2.24092 8.74552C1.58956 8.84685 1.0424 9.30327 0.837127 9.93375C0.634021 10.5576 0.792342 11.2509 1.26832 11.7201C1.26857 11.7204 1.26881 11.7206 1.26905 11.7209L6.8702 17.2716L5.54867 25.1201L5.54853 25.1209C5.43868 25.78 5.71721 26.4406 6.2522 26.831C6.79588 27.2277 7.51215 27.2688 8.09909 26.9573L8.10029 26.9566L14.9897 23.2752L21.8883 26.9612C21.8885 26.9613 21.8887 26.9614 21.8889 26.9615C22.4739 27.2757 23.1893 27.2309 23.7349 26.8381C24.2805 26.4453 24.5505 25.7819 24.4412 25.1261L24.441 25.1253L23.1195 17.2767L28.722 11.7196ZM9.59052 22.1881L10.4774 16.9586L10.4775 16.9582C10.5729 16.3929 10.3813 15.8252 9.98383 15.4277L9.98217 15.426L6.21909 11.698L11.3905 10.9374L11.3929 10.937C11.9689 10.8495 12.4557 10.4849 12.709 9.97108L12.7103 9.96827L14.9953 5.25908L17.2848 9.9686C17.5402 10.4941 18.0358 10.8499 18.6011 10.9369L18.604 10.9373L23.7766 11.7025L20.0143 15.4297C20.014 15.43 20.0137 15.4303 20.0134 15.4306C19.6051 15.8321 19.4228 16.4025 19.5175 16.9634L19.5175 16.9635L20.4 22.1885L15.8219 19.7429C15.8214 19.7426 15.8209 19.7423 15.8204 19.742C15.3063 19.4636 14.686 19.4655 14.1704 19.7415L9.59052 22.1881Z" stroke="black"/>
<defs>
<filter id="filter0_i_5_30" x="0.250488" y="-4" width="29.4878" height="31.6687" filterUnits="userSpaceOnUse" color-interpolation-filters="sRGB">
<feFlood flood-opacity="0" result="BackgroundImageFix"/>
<feBlend mode="normal" in="SourceGraphic" in2="BackgroundImageFix" result="shape"/>
<feColorMatrix in="SourceAlpha" type="matrix" values="0 0 0 0 0 0 0 0 0 0 0 0 0 0 0 0 0 0 127 0" result="hardAlpha"/>
<feOffset dy="-3"/>
<feGaussianBlur stdDeviation="2"/>
<feComposite in2="hardAlpha" operator="arithmetic" k2="-1" k3="1"/>
<feColorMatrix type="matrix" values="0 0 0 0 0 0 0 0 0 0 0 0 0 0 0 0 0 0 0.1 0"/>
<feBlend mode="normal" in2="shape" result="effect1_innerShadow_5_30"/>
</filter>
</defs>
</svg>
